<svg width="192" height="70" viewBox="0 0 192 70" fill="none" xmlns="http://www.w3.org/2000/svg">
<path d="M43.4199 11.8096L28.8408 23.208L76.8848 5.13477L28.6602 54.9385L58.0068 35.7695L66.5879 34.0586L61.0957 41.0752L9.0957 70L49.9404 20.5381L20.251 41.9316L0 34.0586L28.3984 23.375L36.2119 0L43.4199 11.8096ZM73.624 60.9287L50.9707 52.8848L63.8418 45.8682L73.624 60.9287Z" fill="#000080"/>
<path d="M85.8613 31.4736C86.3777 31.4736 86.8439 31.5235 87.2597 31.624C87.6756 31.7247 88.0685 31.886 88.4374 32.1074V35.1367C88.0887 34.8282 87.7535 34.6028 87.4316 34.4619C87.1096 34.3211 86.7705 34.251 86.415 34.251C85.7039 34.251 85.1365 34.4855 84.7138 34.9551C84.2979 35.4246 84.0898 36.0623 84.0898 36.8672C84.0898 37.6454 84.308 38.2666 84.7441 38.7295C85.1801 39.1923 85.7671 39.4237 86.5048 39.4238C86.8671 39.4238 87.2061 39.3528 87.5214 39.2119C87.8434 39.0643 88.149 38.84 88.4374 38.5381V41.6475C88.0081 41.889 87.5787 42.0666 87.1494 42.1807C86.7201 42.2947 86.2773 42.3525 85.8212 42.3525C84.258 42.3525 82.9893 41.8522 82.0165 40.8525C81.0506 39.8462 80.5683 38.5245 80.5683 36.8877C80.5683 35.2978 81.0608 33.9995 82.0468 32.9932C83.0397 31.9801 84.3115 31.4736 85.8613 31.4736ZM104.951 31.4736C106.635 31.4736 107.964 32.0035 108.936 33.0635C109.909 34.1235 110.395 35.576 110.395 37.4209V37.5918H102.667C102.674 38.3768 102.876 38.9847 103.271 39.4141C103.667 39.8363 104.227 40.0478 104.951 40.0479C105.494 40.0479 105.951 39.9473 106.32 39.7461C106.696 39.5381 106.981 39.2326 107.176 38.8301L109.873 39.917C109.551 40.6951 108.98 41.2951 108.162 41.7178C107.344 42.1404 106.341 42.3525 105.153 42.3525C103.382 42.3525 101.959 41.8623 100.886 40.8828C99.8191 39.8966 99.2861 38.5984 99.2861 36.9883C99.2861 35.405 99.819 34.0896 100.886 33.043C101.959 31.9965 103.314 31.4737 104.951 31.4736ZM116.645 31.4736C117.41 31.4737 118.068 31.6381 118.618 31.9668C119.175 32.2888 119.651 32.7884 120.047 33.4658V31.7959H123.357V41.96H120.067V40.3096C119.598 41.014 119.067 41.5306 118.477 41.8594C117.893 42.1879 117.205 42.3525 116.414 42.3525C115.059 42.3525 113.975 41.8593 113.163 40.873C112.351 39.8801 111.945 38.5515 111.945 36.8877C111.945 35.2306 112.368 33.9152 113.214 32.9424C114.066 31.963 115.21 31.4736 116.645 31.4736ZM156.517 31.4736C158.2 31.4736 159.529 32.0035 160.502 33.0635C161.475 34.1235 161.961 35.576 161.961 37.4209V37.5918H154.232C154.239 38.3768 154.44 38.9847 154.836 39.4141C155.232 39.8366 155.792 40.0478 156.517 40.0479C157.06 40.0479 157.517 39.9474 157.886 39.7461C158.261 39.5381 158.547 39.2326 158.741 38.8301L161.437 39.917C161.115 40.6951 160.545 41.2952 159.727 41.7178C158.908 42.1404 157.905 42.3525 156.718 42.3525C154.947 42.3525 153.524 41.8623 152.451 40.8828C151.384 39.8966 150.851 38.5984 150.851 36.9883C150.851 35.405 151.384 34.0896 152.451 33.043C153.524 31.9965 154.88 31.4737 156.517 31.4736ZM97.666 31.5742C97.8068 31.5742 97.948 31.5803 98.0888 31.5938C98.2363 31.6005 98.3837 31.6147 98.5312 31.6348L98.1894 34.8955C97.9747 34.8217 97.7626 34.7679 97.5546 34.7344C97.3468 34.7009 97.1456 34.6836 96.9511 34.6836C96.079 34.6836 95.405 34.9525 94.9286 35.4893C94.4591 36.0192 94.2236 36.7736 94.2236 37.7529V41.96H90.6611V31.7959H94.0429V34.1904C94.3917 33.3185 94.868 32.6646 95.4716 32.2285C96.0754 31.7924 96.8072 31.5742 97.666 31.5742ZM130.15 31.7959H131.67V34.3311H130.15V41.96H126.618V34.3311H125.099V31.7959H126.618V28.7666H130.15V31.7959ZM137.044 41.96H133.451V31.7959H137.044V41.96ZM143.847 36.2842C143.867 36.3311 143.89 36.3881 143.917 36.4551C144.138 37.0454 144.276 37.5185 144.33 37.874C144.377 37.5453 144.508 37.1058 144.723 36.5557C144.77 36.4351 144.803 36.3446 144.823 36.2842L146.554 31.7959H150.287L145.668 41.96H142.86L138.292 31.7959H142.116L143.847 36.2842ZM117.843 34.291C117.112 34.291 116.535 34.5227 116.112 34.9854C115.696 35.4415 115.488 36.069 115.488 36.8672C115.488 37.6588 115.699 38.283 116.122 38.7393C116.545 39.1954 117.118 39.4238 117.843 39.4238C118.574 39.4238 119.151 39.1955 119.574 38.7393C119.997 38.2831 120.208 37.6587 120.208 36.8672C120.208 36.0757 119.997 35.4482 119.574 34.9854C119.151 34.5224 118.574 34.291 117.843 34.291ZM104.831 33.6572C104.247 33.6572 103.78 33.8186 103.432 34.1406C103.09 34.4559 102.862 34.9322 102.748 35.5693H106.863C106.796 34.9924 106.575 34.5295 106.199 34.1807C105.83 33.8319 105.374 33.6573 104.831 33.6572ZM156.395 33.6572C155.812 33.6573 155.346 33.8187 154.997 34.1406C154.655 34.4559 154.426 34.9321 154.312 35.5693H158.429C158.362 34.9924 158.14 34.5295 157.765 34.1807C157.396 33.8318 156.939 33.6572 156.395 33.6572ZM135.242 26.6631C135.806 26.6631 136.276 26.8509 136.651 27.2266C137.034 27.6022 137.225 28.0683 137.226 28.625C137.226 29.1817 137.03 29.6549 136.642 30.0439C136.259 30.4331 135.792 30.6279 135.242 30.6279C134.706 30.6278 134.242 30.4299 133.853 30.0342C133.464 29.6384 133.27 29.1683 133.27 28.625C133.271 28.0818 133.461 27.6186 133.844 27.2363C134.233 26.8541 134.699 26.6632 135.242 26.6631ZM94.496 11.1855L95.915 14.8584C96.0357 15.1669 96.1362 15.4554 96.2167 15.7236C96.2972 15.9853 96.3571 16.2309 96.3974 16.459C96.4376 16.2175 96.4945 15.9688 96.5683 15.7139C96.6488 15.4522 96.7503 15.167 96.871 14.8584L98.3095 11.1855H102.143L95.7538 25.8379H91.7587L94.6161 19.7998L90.5439 11.2354L85.1767 18.5918H90.1279V21.3496H79.8232L85.0361 13.8018H80.457V11.1855H94.496ZM117.592 10.8633C118.377 10.8633 119.108 10.9943 119.785 11.2559C120.463 11.5175 121.07 11.9064 121.606 12.4229C122.156 12.9528 122.573 13.5467 122.854 14.2041C123.136 14.8616 123.277 15.5599 123.277 16.2979C123.277 17.029 123.133 17.7235 122.845 18.3809C122.563 19.0383 122.15 19.629 121.606 20.1523C121.056 20.6755 120.439 21.0715 119.755 21.3398C119.077 21.6081 118.356 21.7421 117.592 21.7422C116.814 21.7422 116.082 21.6082 115.397 21.3398C114.72 21.0715 114.113 20.6755 113.576 20.1523C113.04 19.6426 112.63 19.0587 112.349 18.4014C112.067 17.7372 111.926 17.0358 111.926 16.2979C111.926 15.5532 112.063 14.8518 112.338 14.1943C112.62 13.5369 113.033 12.9462 113.576 12.4229C114.106 11.9064 114.71 11.5175 115.388 11.2559C116.072 10.9943 116.807 10.8633 117.592 10.8633ZM141.16 10.8633C141.925 10.8633 142.582 11.0279 143.132 11.3564C143.689 11.6784 144.166 12.178 144.561 12.8555V11.1855H147.872V21.3496H144.581V19.6992C144.111 20.4035 143.581 20.9203 142.991 21.249C142.408 21.5776 141.72 21.7421 140.929 21.7422C139.573 21.7422 138.489 21.2489 137.678 20.2627C136.866 19.2698 136.46 17.9411 136.46 16.2773C136.46 14.6203 136.883 13.3058 137.728 12.333C138.58 11.3535 139.724 10.8633 141.16 10.8633ZM154.272 10.8633C154.923 10.8633 155.584 10.9405 156.255 11.0947C156.932 11.2423 157.624 11.4738 158.328 11.7891L157.584 14.2549C157.108 13.933 156.624 13.6882 156.135 13.5205C155.645 13.3528 155.155 13.2686 154.665 13.2686C154.256 13.2686 153.947 13.3325 153.739 13.46C153.531 13.5874 153.428 13.7722 153.428 14.0137C153.428 14.3757 153.897 14.6806 154.836 14.9287C155.051 14.9891 155.212 15.0327 155.319 15.0596C156.56 15.4151 157.422 15.8345 157.905 16.3174C158.395 16.7937 158.641 17.4414 158.641 18.2598C158.641 19.2997 158.241 20.1421 157.442 20.7861C156.644 21.4234 155.587 21.7422 154.272 21.7422C153.38 21.7422 152.552 21.6376 151.787 21.4297C151.022 21.2284 150.305 20.9198 149.634 20.5039L150.378 17.7666C150.901 18.2227 151.475 18.575 152.099 18.8232C152.729 19.0648 153.364 19.1855 154.001 19.1855C154.45 19.1855 154.792 19.1155 155.027 18.9746C155.262 18.8271 155.38 18.6158 155.38 18.3408C155.38 17.8913 154.907 17.5554 153.961 17.334C153.652 17.2602 153.404 17.1962 153.216 17.1426C152.142 16.8474 151.361 16.4617 150.871 15.9854C150.388 15.5024 150.147 14.8788 150.146 14.1143C150.146 13.128 150.516 12.3394 151.254 11.749C151.998 11.1587 153.005 10.8633 154.272 10.8633ZM172.034 10.8633C172.799 10.8633 173.457 11.0278 174.007 11.3564C174.564 11.6785 175.041 12.1779 175.436 12.8555V11.1855H178.747V21.3496H175.456V19.6992C174.986 20.4036 174.457 20.9203 173.866 21.249C173.282 21.5778 172.594 21.7422 171.803 21.7422C170.448 21.7421 169.364 21.2488 168.553 20.2627C167.741 19.2698 167.335 17.9412 167.335 16.2773C167.335 14.6205 167.757 13.3057 168.602 12.333C169.454 11.3536 170.599 10.8634 172.034 10.8633ZM110.306 10.9639C110.446 10.9639 110.588 10.971 110.728 10.9844C110.876 10.9911 111.023 11.0043 111.171 11.0244L110.829 14.2852C110.614 14.2114 110.402 14.1576 110.194 14.124C109.986 14.0905 109.785 14.0732 109.591 14.0732C108.719 14.0733 108.045 14.3422 107.568 14.8789C107.099 15.4088 106.863 16.1633 106.863 17.1426V21.3496H103.301V11.1855H106.683V13.5801C107.031 12.7082 107.508 12.0542 108.111 11.6182C108.715 11.1821 109.447 10.9639 110.306 10.9639ZM129.395 15.6738C129.416 15.7208 129.439 15.7777 129.466 15.8447C129.687 16.4351 129.825 16.9081 129.879 17.2637C129.926 16.9349 130.057 16.4955 130.271 15.9453C130.318 15.8247 130.352 15.7342 130.372 15.6738L132.102 11.1855H135.836L131.217 21.3496H128.409L123.841 11.1855H127.665L129.395 15.6738ZM164.648 11.1855H166.168V13.7217H164.648V21.3496H161.115V13.7217H159.596V11.1855H161.115V8.15625H164.648V11.1855ZM188.478 10.9639C188.619 10.9639 188.761 10.971 188.901 10.9844C189.049 10.9911 189.196 11.0043 189.344 11.0244L189.002 14.2852C188.787 14.2114 188.575 14.1576 188.367 14.124C188.159 14.0905 187.958 14.0732 187.764 14.0732C186.891 14.0733 186.217 14.3422 185.741 14.8789C185.272 15.4088 185.036 16.1633 185.036 17.1426V21.3496H181.474V11.1855H184.855V13.5801C185.204 12.7082 185.68 12.0542 186.284 11.6182C186.888 11.1821 187.62 10.9639 188.478 10.9639ZM142.357 13.6807C141.626 13.6807 141.05 13.9131 140.627 14.376C140.211 14.8322 140.003 15.4595 140.003 16.2578C140.003 17.0492 140.214 17.6728 140.637 18.1289C141.059 18.5851 141.633 18.8135 142.357 18.8135C143.089 18.8135 143.665 18.5851 144.088 18.1289C144.51 17.6728 144.723 17.0493 144.723 16.2578C144.723 15.4662 144.51 14.8389 144.088 14.376C143.665 13.9131 143.089 13.6807 142.357 13.6807ZM173.232 13.6807C172.501 13.6807 171.924 13.9131 171.501 14.376C171.085 14.8322 170.877 15.4597 170.877 16.2578C170.877 17.0493 171.089 17.6728 171.512 18.1289C171.934 18.5851 172.508 18.8135 173.232 18.8135C173.964 18.8134 174.54 18.5851 174.963 18.1289C175.385 17.6728 175.597 17.0492 175.597 16.2578C175.597 15.4662 175.385 14.8389 174.963 14.376C174.54 13.9131 173.964 13.6807 173.232 13.6807ZM117.592 13.8525C116.934 13.8525 116.414 14.0699 116.031 14.5059C115.655 14.9419 115.468 15.5397 115.468 16.2979C115.468 17.0558 115.656 17.6528 116.031 18.0889C116.407 18.5182 116.928 18.7334 117.592 18.7334C118.249 18.7333 118.765 18.518 119.141 18.0889C119.523 17.6528 119.715 17.0559 119.715 16.2979C119.715 15.5397 119.523 14.9419 119.141 14.5059C118.758 14.0702 118.242 13.8526 117.592 13.8525Z" fill="black"/>
<path d="M156.934 52.5312C157.098 52.5312 157.258 52.5507 157.415 52.5898C157.533 52.6186 157.647 52.6601 157.761 52.708H159.039L159.969 55.3311C160.022 55.4913 160.068 55.6558 160.108 55.8232C160.15 55.987 160.184 56.1543 160.209 56.3252C160.255 56.1471 160.367 55.8639 160.541 55.4756L160.568 55.4111L161.818 52.708H163.073L159.419 60.1562H158.227L159.616 57.335L157.829 52.8896L157.469 53.7441C157.369 53.673 157.26 53.6219 157.143 53.5898C157.029 53.5542 156.9 53.5361 156.758 53.5361C156.373 53.5361 156.097 53.6911 155.93 54.001C155.762 54.3073 155.679 54.8242 155.679 55.5508V57.7734H154.519V52.6973H155.679V53.5146C155.804 53.1798 155.967 52.9318 156.17 52.7715C156.377 52.6114 156.631 52.5313 156.934 52.5312ZM144.752 55.2568C144.788 55.3352 144.83 55.4529 144.88 55.6094C144.93 55.766 144.982 55.9528 145.035 56.1699C145.071 56.0168 145.112 55.8654 145.158 55.7158C145.208 55.5629 145.267 55.4098 145.334 55.2568L146.435 52.708H147.696L145.035 58.0771L142.38 52.708H143.646L144.752 55.2568ZM98.4279 52.5312C98.8088 52.5313 99.1665 52.5992 99.5012 52.7344C99.8396 52.8697 100.143 53.0694 100.41 53.333C100.677 53.593 100.88 53.8872 101.019 54.2148C101.158 54.5425 101.228 54.8864 101.228 55.2461C101.228 55.6199 101.158 55.9703 101.019 56.2979C100.883 56.6254 100.684 56.9161 100.421 57.1689C100.143 57.4361 99.8347 57.6381 99.4963 57.7734C99.158 57.9123 98.8018 57.9814 98.4279 57.9814C98.061 57.9814 97.7077 57.9124 97.3693 57.7734C97.031 57.6381 96.7305 57.4397 96.467 57.1797C96.1998 56.9161 95.9965 56.6207 95.8576 56.293C95.7187 55.9654 95.6496 55.6164 95.6496 55.2461C95.6496 54.8756 95.7187 54.526 95.8576 54.1982C96.0001 53.867 96.2034 53.5728 96.467 53.3164C96.7269 53.0637 97.0262 52.8697 97.3644 52.7344C97.7028 52.599 98.0575 52.5312 98.4279 52.5312ZM111.059 52.5312C111.44 52.5313 111.798 52.599 112.133 52.7344C112.471 52.8697 112.774 53.0695 113.041 53.333C113.308 53.593 113.511 53.8872 113.65 54.2148C113.788 54.5425 113.859 54.8864 113.859 55.2461C113.859 55.6199 113.788 55.9703 113.65 56.2979C113.514 56.6254 113.315 56.9161 113.052 57.1689C112.774 57.4361 112.466 57.6381 112.127 57.7734C111.789 57.9123 111.433 57.9814 111.059 57.9814C110.692 57.9814 110.339 57.9122 110.001 57.7734C109.663 57.6381 109.361 57.4397 109.098 57.1797C108.831 56.9161 108.627 56.6206 108.488 56.293C108.35 55.9654 108.281 55.6164 108.28 55.2461C108.28 54.8756 108.35 54.526 108.488 54.1982C108.631 53.867 108.834 53.5728 109.098 53.3164C109.358 53.0636 109.657 52.8697 109.995 52.7344C110.334 52.599 110.688 52.5312 111.059 52.5312ZM150.715 52.5312C151.531 52.5313 152.166 52.7649 152.622 53.2314C153.078 53.6981 153.306 54.3517 153.306 55.1924V55.4111H149.256C149.285 55.8847 149.425 56.2553 149.678 56.5225C149.931 56.786 150.268 56.9179 150.688 56.918C151.062 56.918 151.374 56.8393 151.623 56.6826C151.872 56.5259 152.089 56.2728 152.275 55.9238L153.253 56.4697C152.968 56.979 152.615 57.3581 152.195 57.6074C151.774 57.8566 151.281 57.9814 150.715 57.9814C149.903 57.9814 149.256 57.7334 148.776 57.2383C148.295 56.7432 148.054 56.083 148.054 55.2568C148.054 54.4625 148.302 53.8102 148.797 53.3008C149.296 52.788 149.935 52.5312 150.715 52.5312ZM182.955 52.5312C183.771 52.5313 184.407 52.7649 184.862 53.2314C185.318 53.6981 185.546 54.3518 185.546 55.1924V55.4111H181.496C181.525 55.8847 181.665 56.2553 181.918 56.5225C182.171 56.786 182.508 56.9179 182.928 56.918C183.302 56.918 183.614 56.8393 183.863 56.6826C184.113 56.5259 184.33 56.2728 184.515 55.9238L185.493 56.4697C185.208 56.979 184.855 57.3581 184.435 57.6074C184.015 57.8566 183.521 57.9814 182.955 57.9814C182.143 57.9814 181.497 57.7334 181.016 57.2383C180.535 56.7432 180.294 56.083 180.294 55.2568C180.294 54.4625 180.542 53.8102 181.037 53.3008C181.536 52.788 182.175 52.5312 182.955 52.5312ZM190.484 56.4697C190.679 56.4698 190.845 56.5389 190.981 56.6777C191.116 56.8166 191.183 56.984 191.183 57.1797C191.183 57.372 191.116 57.5365 190.981 57.6719C190.845 57.8036 190.679 57.8691 190.484 57.8691C190.288 57.8691 190.122 57.8035 189.987 57.6719C189.851 57.5365 189.783 57.372 189.783 57.1797C189.783 56.9839 189.851 56.8166 189.987 56.6777C190.122 56.5388 190.288 56.4697 190.484 56.4697ZM85.0861 51.0303H81.9924V52.9912H85.0861V54.1074H81.9924V56.6348H85.0861V57.7734H80.7209V49.9502H85.0861V51.0303ZM92.8224 52.5205C93.1573 52.5205 93.4501 52.5833 93.6994 52.708C93.9485 52.8291 94.1426 53.0072 94.2814 53.2422C94.3455 53.3526 94.3916 53.4846 94.4201 53.6377C94.4521 53.7909 94.468 54.0101 94.468 54.2949V57.7734H93.3088V55.1709C93.3088 54.4908 93.236 54.0439 93.09 53.8301C92.9475 53.6128 92.6909 53.5039 92.3205 53.5039C91.8646 53.5039 91.5389 53.6503 91.343 53.9424C91.1507 54.2309 91.0539 54.7383 91.0539 55.4648V57.7734H89.884V55.1709C89.884 54.544 89.8076 54.1094 89.6545 53.8672C89.5049 53.625 89.2447 53.5039 88.8742 53.5039C88.6463 53.5039 88.438 53.5559 88.2492 53.6592C88.0605 53.7625 87.9104 53.9043 87.8 54.0859C87.7288 54.2034 87.6791 54.3478 87.6506 54.5186C87.6221 54.6895 87.6076 55.0053 87.6076 55.4648V57.7734H86.4484V52.708H87.5383V53.5361C87.7697 53.1837 88.0315 52.9269 88.3234 52.7666C88.619 52.6028 88.9666 52.5206 89.3654 52.5205C89.7607 52.5205 90.0888 52.6042 90.3488 52.7715C90.6088 52.9353 90.8062 53.187 90.9416 53.5254C91.2087 53.1764 91.492 52.921 91.7912 52.7607C92.0939 52.6005 92.4379 52.5206 92.8224 52.5205ZM103.888 52.708H104.776V53.7227H103.888V57.7734H102.729V53.7227H101.842V52.708H102.729V50.79H103.888V52.708ZM106.992 57.7734H105.833V52.708H106.992V57.7734ZM118.138 52.5312C118.515 52.5312 118.836 52.5919 119.1 52.7129C119.367 52.8304 119.575 53.0071 119.725 53.2422C119.814 53.3811 119.878 53.5433 119.917 53.7285C119.956 53.9138 119.977 54.2382 119.977 54.7012V57.7734H118.806V55.1709C118.806 54.5049 118.725 54.063 118.561 53.8457C118.4 53.6249 118.113 53.5147 117.7 53.5146C117.43 53.5146 117.187 53.5644 116.974 53.6641C116.764 53.7637 116.598 53.9044 116.477 54.0859C116.391 54.207 116.331 54.3643 116.295 54.5566C116.263 54.7454 116.247 55.0482 116.247 55.4648V57.7734H115.087V52.708H116.177V53.5361C116.408 53.187 116.682 52.9318 116.995 52.7715C117.309 52.6114 117.689 52.5313 118.138 52.5312ZM126.035 57.7734H124.876V52.708H126.035V57.7734ZM130.748 52.5312C131.125 52.5313 131.446 52.592 131.709 52.7129C131.976 52.8304 132.186 53.0071 132.335 53.2422C132.424 53.3811 132.488 53.5434 132.528 53.7285C132.567 53.9138 132.586 54.2383 132.586 54.7012V57.7734H131.416V55.1709C131.416 54.5048 131.334 54.063 131.17 53.8457C131.01 53.6249 130.723 53.5146 130.31 53.5146C130.039 53.5146 129.797 53.5644 129.583 53.6641C129.373 53.7638 129.207 53.9044 129.086 54.0859C129.001 54.207 128.94 54.3643 128.904 54.5566C128.872 54.7454 128.857 55.0482 128.857 55.4648V57.7734H127.697V52.708H128.787V53.5361C129.019 53.1871 129.291 52.9318 129.605 52.7715C129.918 52.6113 130.3 52.5312 130.748 52.5312ZM141.894 51.0303H138.8V52.9912H141.894V54.1074H138.8V56.6348H141.894V57.7734H137.529V49.9502H141.894V51.0303ZM169.03 49.9502C169.6 49.9502 170.019 49.9828 170.286 50.0469C170.557 50.1074 170.792 50.2091 170.991 50.3516C171.237 50.5332 171.43 50.779 171.569 51.0889C171.707 51.3951 171.777 51.7332 171.778 52.1035C171.778 52.474 171.707 52.8164 171.569 53.1299C171.43 53.4433 171.237 53.6891 170.991 53.8672C170.792 54.0096 170.557 54.1113 170.286 54.1719C170.019 54.2324 169.6 54.2627 169.03 54.2627H168.299V57.7734H167.108V49.9502H169.03ZM174.048 57.7734H172.889V52.708H174.048V57.7734ZM177.04 53.7549C177.115 53.8616 177.181 53.9649 177.237 54.0645C177.294 54.1641 177.346 54.2659 177.393 54.3691C177.435 54.2837 177.484 54.195 177.537 54.1025C177.594 54.0064 177.666 53.8866 177.751 53.7441L178.456 52.708H179.723L178.082 55.0586L179.985 57.7734H178.718L177.778 56.4424L177.735 56.3789C177.553 56.1046 177.435 55.8941 177.382 55.748C177.311 55.8832 177.242 56.0095 177.174 56.127C177.11 56.2409 177.043 56.3485 176.976 56.4482L176.057 57.7734H174.775L176.693 55.0479L175.053 52.708H176.329L177.04 53.7549ZM187.972 57.7734H186.813V49.4912H187.972V57.7734ZM98.4387 53.5732C98.0043 53.5732 97.6336 53.737 97.3273 54.0645C97.0246 54.3886 96.8732 54.7866 96.8732 55.2568C96.8733 55.7269 97.0246 56.1255 97.3273 56.4531C97.6337 56.7772 98.0041 56.9395 98.4387 56.9395C98.8731 56.9394 99.2414 56.7772 99.5441 56.4531C99.8504 56.1255 100.004 55.7269 100.004 55.2568C100.004 54.7866 99.8528 54.3886 99.55 54.0645C99.2473 53.7369 98.8766 53.5733 98.4387 53.5732ZM111.07 53.5732C110.635 53.5732 110.264 53.737 109.958 54.0645C109.655 54.3886 109.504 54.7866 109.504 55.2568C109.504 55.7269 109.656 56.1255 109.958 56.4531C110.265 56.7773 110.635 56.9395 111.07 56.9395C111.504 56.9394 111.872 56.7772 112.175 56.4531C112.481 56.1255 112.635 55.7269 112.635 55.2568C112.635 54.7866 112.484 54.3886 112.181 54.0645C111.878 53.7369 111.507 53.5733 111.07 53.5732ZM150.737 53.5146C150.356 53.5146 150.049 53.607 149.818 53.792C149.586 53.9771 149.424 54.2571 149.331 54.6309H152.104C152.057 54.2678 151.919 53.9914 151.688 53.8027C151.456 53.6104 151.139 53.5147 150.737 53.5146ZM182.977 53.5146C182.596 53.5146 182.289 53.607 182.058 53.792C181.826 53.9771 181.664 54.2571 181.571 54.6309H184.344C184.298 54.2678 184.159 53.9914 183.928 53.8027C183.696 53.6104 183.379 53.5147 182.977 53.5146ZM168.379 53.2207H168.705C169.41 53.2207 169.88 53.1443 170.115 52.9912C170.351 52.838 170.468 52.567 170.468 52.1787C170.468 51.762 170.342 51.4679 170.089 51.2969C169.84 51.1259 169.378 51.041 168.705 51.041H168.379V53.2207ZM106.41 49.7959C106.617 49.7959 106.788 49.8651 106.923 50.0039C107.062 50.1392 107.132 50.3102 107.132 50.5166C107.132 50.7232 107.062 50.8985 106.923 51.041C106.784 51.1797 106.613 51.249 106.41 51.249C106.211 51.249 106.038 51.1776 105.892 51.0352C105.749 50.8892 105.678 50.716 105.678 50.5166C105.678 50.321 105.75 50.1521 105.892 50.0098C106.038 49.8673 106.211 49.7959 106.41 49.7959ZM125.453 49.7959C125.66 49.796 125.831 49.8651 125.966 50.0039C126.105 50.1392 126.174 50.3102 126.174 50.5166C126.174 50.7232 126.105 50.8985 125.966 51.041C125.827 51.1798 125.656 51.2489 125.453 51.249C125.254 51.249 125.081 51.1776 124.935 51.0352C124.792 50.8891 124.721 50.7161 124.721 50.5166C124.721 50.3209 124.792 50.1521 124.935 50.0098C125.081 49.8673 125.254 49.7959 125.453 49.7959ZM173.466 49.7959C173.672 49.796 173.843 49.8651 173.979 50.0039C174.118 50.1392 174.187 50.3102 174.187 50.5166C174.187 50.7232 174.118 50.8985 173.979 51.041C173.84 51.1798 173.669 51.2489 173.466 51.249C173.267 51.249 173.093 51.1776 172.947 51.0352C172.805 50.8891 172.734 50.7161 172.734 50.5166C172.734 50.3209 172.805 50.1521 172.947 50.0098C173.093 49.8673 173.267 49.7959 173.466 49.7959Z" fill="#74726A"/>
</svg>
